# xmcd
#
# Track frame offsets:
#	150
#	11140
#	23748
#	35525
#	45061
#	55144
#	67123
#	79316
#	92900
#	104861
#	120177
#	132330
#	145257
#	159272
#	170215
#	182305
#	194893
#	206257
#	217492
#	228468
#	238553
#	250945
#	263943
#	275070
#	290223
#	299338
#	309571
#	320235
#	331601
#	342869
#	354360
#	365855
#
# Disc length: 5068 seconds
#
# Revision: 0
# Processed by: cddbd v1.5.1PL0 Copyright (c) Steve Scherf et al.
# Submitted via: dBpowerAMP V4.0
#
DISCID=0213ca20
DTITLE=Sandy Posey - Born A Woman
DYEAR=1900
DGENRE=Country
TTITLE0=(All I Have To Do Is) Dream
TTITLE1=And Then He Kissed Me
TTITLE2=Be My Baby
TTITLE3=Born A Woman
TTITLE4=Born To Be With You
TTITLE5=Bring Him Safely Home To Me
TTITLE6=Devoted To you
TTITLE7=Don't Break The Heart That Love
TTITLE8=Don't Say Nothing Bad About My Baby
TTITLE9=Don't Touch Me
TTITLE10=Everybody's Somebody's Fool
TTITLE11=She's Got You
TTITLE12=Since I Met You Baby
TTITLE13=Single Girl
TTITLE14=Sunglasses
TTITLE15=The Boy I Love
TTITLE16=The Last Day Of Love
TTITLE17=The Twelfth Of Never
TTITLE18=Till I Kissed You
TTITLE19=What A Woman In Love Won't Do
TTITLE20=Young Love
TTITLE21=Sad Movies
TTITLE22=Satin Pillow
TTITLE23=Save The Last Dance For Me
TTITLE24=Hey Mister
TTITLE25=I Love How You Love Me
TTITLE26=I Take It Back (original)
TTITLE27=I Will Follow Him
TTITLE28=I'm Your Puppet
TTITLE29=It's All in the Game
TTITLE30=Johnny Get Angry
TTITLE31=Put Your Hand In The Hand
EXTD=
EXTT0=
EXTT1=
EXTT2=
EXTT3=
EXTT4=
EXTT5=
EXTT6=
EXTT7=
EXTT8=
EXTT9=
EXTT10=
EXTT11=
EXTT12=
EXTT13=
EXTT14=
EXTT15=
EXTT16=
EXTT17=
EXTT18=
EXTT19=
EXTT20=
EXTT21=
EXTT22=
EXTT23=
EXTT24=
EXTT25=
EXTT26=
EXTT27=
EXTT28=
EXTT29=
EXTT30=
EXTT31=
PLAYORDER=
